<svg xmlns="http://www.w3.org/2000/svg"  viewBox="0 0 24 24" width="50px" height="50px"><path d="M 12 2.9902344 C 6.0446263 2.9902344 1 6.8966651 1 11.990234 C 1 13.896926 1.7980001 15.621616 3 17.050781 L 3 20.976562 A 1.0001 1.0001 0 0 0 3.8417969 21.964844 C 3.8417969 21.964844 6.3486581 22.257706 8.6601562 20.490234 C 9.7206357 20.770256 10.82135 20.990234 12 20.990234 C 17.955374 20.990234 23 17.083804 23 11.990234 C 23 6.8966651 17.955253 2.9902344 12 2.9902344 z M 12 4.9902344 C 17.090747 4.9902344 21 8.2478044 21 11.990234 C 21 15.732665 17.090626 18.990234 12 18.990234 C 10.84589 18.990234 9.7483572 18.812464 8.7304688 18.501953 A 1.0001 1.0001 0 0 0 7.7675781 18.716797 C 6.6488786 19.727252 5.6917059 19.921539 5 19.962891 L 5 16.775391 A 1.0001 1.0001 0 0 0 4.7304688 16.091797 C 3.6255555 14.91175 3 13.508993 3 11.990234 C 3 8.2478044 6.9093737 4.9902344 12 4.9902344 z"/></svg>