<svg xmlns="http://www.w3.org/2000/svg"  viewBox="0 0 24 24" width="50px" height="50px"><path d="M 10.972656 2 C 9.3425953 2 8 3.3425951 8 4.9726562 L 8 6 L 4.7324219 6 C 3.2352782 6 2 7.2352782 2 8.7324219 L 2 11.832031 A 1.0001 1.0001 0 0 0 2 12.158203 L 2 19.267578 C 2 20.764722 3.2348437 22 4.7324219 22 L 19.267578 22 C 20.764722 22 22 20.764722 22 19.267578 L 22 12.167969 A 1.0001 1.0001 0 0 0 22 11.841797 L 22 8.7324219 C 22 7.2352782 20.765156 6 19.267578 6 L 16 6 L 16 4.9726562 C 16 3.3425952 14.657405 2 13.027344 2 L 10.972656 2 z M 10.972656 4 L 13.027344 4 C 13.577283 4 14 4.4227175 14 4.9726562 L 14 6 L 10 6 L 10 4.9726562 C 10 4.4227174 10.422717 4 10.972656 4 z M 4.7324219 8 L 8.8320312 8 A 1.0001 1.0001 0 0 0 9.1582031 8 L 14.832031 8 A 1.0001 1.0001 0 0 0 15.158203 8 L 19.267578 8 C 19.684 8 20 8.3175655 20 8.7324219 L 20 11 L 4 11 L 4 8.7324219 C 4 8.3175655 4.3175655 8 4.7324219 8 z M 4 13 L 6 13 L 6 13.017578 C 6 13.277578 6.1021094 13.528891 6.2871094 13.712891 C 6.4711094 13.897891 6.7224219 14 6.9824219 14 L 9.0136719 14 C 9.2756719 14 9.5259375 13.895938 9.7109375 13.710938 C 9.8959375 13.525937 10 13.275672 10 13.013672 L 10 13 L 14 13 L 14 13.017578 C 14 13.277578 14.103109 13.528891 14.287109 13.712891 C 14.471109 13.897891 14.722422 14 14.982422 14 L 17.013672 14 C 17.275672 14 17.525938 13.895938 17.710938 13.710938 C 17.895938 13.525937 18 13.275672 18 13.013672 L 18 13 L 20 13 L 20 19.267578 C 20 19.682434 19.682434 20 19.267578 20 L 4.7324219 20 C 4.3160001 20 4 19.682434 4 19.267578 L 4 13 z"/></svg>