<svg xmlns="http://www.w3.org/2000/svg"  viewBox="0 0 24 24" width="50px" height="50px"><path d="M 11.984375 -0.013671875 A 1.0001 1.0001 0 0 0 11 1 L 11 2 A 1.0001 1.0001 0 1 0 13 2 L 13 1 A 1.0001 1.0001 0 0 0 11.984375 -0.013671875 z M 4.2109375 3.2109375 A 1.0001 1.0001 0 0 0 3.515625 4.9296875 L 4.2226562 5.6367188 A 1.0001 1.0001 0 1 0 5.6367188 4.2226562 L 4.9296875 3.515625 A 1.0001 1.0001 0 0 0 4.2109375 3.2109375 z M 19.757812 3.2128906 A 1.0001 1.0001 0 0 0 19.070312 3.515625 L 18.363281 4.2226562 A 1.0001 1.0001 0 1 0 19.777344 5.6367188 L 20.484375 4.9296875 A 1.0001 1.0001 0 0 0 19.757812 3.2128906 z M 12 5 C 8.1458495 5 5 8.1458524 5 12 C 5 15.854148 8.1458495 19 12 19 C 15.854151 19 19 15.854148 19 12 C 19 8.1458524 15.854151 5 12 5 z M 12 7 C 14.773271 7 17 9.2267307 17 12 C 17 14.773269 14.773271 17 12 17 C 9.226729 17 7 14.773269 7 12 C 7 9.2267307 9.226729 7 12 7 z M 1 11 A 1.0001 1.0001 0 1 0 1 13 L 2 13 A 1.0001 1.0001 0 1 0 2 11 L 1 11 z M 22 11 A 1.0001 1.0001 0 1 0 22 13 L 23 13 A 1.0001 1.0001 0 1 0 23 11 L 22 11 z M 4.9101562 18.060547 A 1.0001 1.0001 0 0 0 4.2226562 18.363281 L 3.515625 19.070312 A 1.0001 1.0001 0 1 0 4.9296875 20.484375 L 5.6367188 19.777344 A 1.0001 1.0001 0 0 0 4.9101562 18.060547 z M 19.060547 18.060547 A 1.0001 1.0001 0 0 0 18.363281 19.777344 L 19.070312 20.484375 A 1.0001 1.0001 0 1 0 20.484375 19.070312 L 19.777344 18.363281 A 1.0001 1.0001 0 0 0 19.060547 18.060547 z M 11.984375 20.986328 A 1.0001 1.0001 0 0 0 11 22 L 11 23 A 1.0001 1.0001 0 1 0 13 23 L 13 22 A 1.0001 1.0001 0 0 0 11.984375 20.986328 z"/></svg>