<svg xmlns="http://www.w3.org/2000/svg"  viewBox="0 0 24 24" width="50px" height="50px"><path d="M 12.972656 1.0019531 A 1.0001 1.0001 0 0 0 12 2 L 12 14.771484 C 11.195987 14.295206 10.183755 14 9 14 C 5.9583343 14 4 15.907408 4 18 C 4 20.092592 5.9583343 22 9 22 C 11.919703 22 13.821303 20.239818 13.970703 18.248047 A 1.0001 1.0001 0 0 0 14 18 L 14 5.5957031 C 14.623692 6.1482014 15.285666 6.6173345 15.837891 6.96875 C 16.495614 7.3873015 17.005653 7.7653127 17.369141 8.3164062 C 17.732628 8.8675 18 9.6388889 18 11 A 1.0001 1.0001 0 1 0 20 11 C 20 9.3611111 19.642372 8.1325001 19.037109 7.2148438 C 18.431847 6.2971874 17.629386 5.7376985 16.912109 5.28125 C 15.477557 4.3683529 14.412582 3.9652557 13.980469 1.8046875 A 1.0001 1.0001 0 0 0 12.972656 1.0019531 z M 9 16 C 11.291665 16 12 17.092592 12 18 C 12 18.907408 11.291665 20 9 20 C 6.7083347 20 6 18.907408 6 18 C 6 17.092592 6.7083347 16 9 16 z"/></svg>