<svg xmlns="http://www.w3.org/2000/svg"  viewBox="0 0 24 24" width="50px" height="50px"><path d="M 11.939453 2.0019531 C 11.681529 2.0038438 11.421409 2.0198882 11.158203 2.0507812 L 11.158203 2.0488281 C 8.082028 2.4091432 5.5629703 4.821651 5.0859375 7.8847656 C 4.7219383 10.22476 5.5403739 12.423632 7.0351562 13.927734 C 7.6427365 14.538446 7.9865968 15.309263 7.9921875 16.111328 A 1.0001 1.0001 0 0 0 8 16.158203 L 8 18 C 8 20.197334 9.8026661 22 12 22 C 14.197334 22 16 20.197334 16 18 L 16 16.167969 A 1.0001 1.0001 0 0 0 16.007812 16.105469 C 16.013112 15.311957 16.324328 14.554215 16.888672 14.003906 C 18.189207 12.736013 19 10.957069 19 9 C 19 5.1260355 15.808311 1.9735925 11.939453 2.0019531 z M 1.9902344 2.9902344 A 1.0001 1.0001 0 0 0 1.2929688 4.7070312 L 2.2929688 5.7070312 A 1.0001 1.0001 0 1 0 3.7070312 4.2929688 L 2.7070312 3.2929688 A 1.0001 1.0001 0 0 0 1.9902344 2.9902344 z M 21.980469 2.9902344 A 1.0001 1.0001 0 0 0 21.292969 3.2929688 L 20.292969 4.2929688 A 1.0001 1.0001 0 1 0 21.707031 5.7070312 L 22.707031 4.7070312 A 1.0001 1.0001 0 0 0 21.980469 2.9902344 z M 11.958984 4 C 14.763791 3.9725475 17 6.2120895 17 9 C 17 10.406931 16.423663 11.664159 15.492188 12.572266 C 14.813212 13.234354 14.440433 14.094501 14.226562 15 L 9.7578125 15 C 9.5256994 14.067042 9.1237734 13.191683 8.453125 12.517578 C 7.3819073 11.439681 6.7964992 9.9014117 7.0625 8.1914062 C 7.3974672 6.0405209 9.2248002 4.2907943 11.390625 4.0371094 C 11.582169 4.0146274 11.771997 4.0018302 11.958984 4 z M 1 9 A 1.0001 1.0001 0 1 0 1 11 L 2 11 A 1.0001 1.0001 0 1 0 2 9 L 1 9 z M 22 9 A 1.0001 1.0001 0 1 0 22 11 L 23 11 A 1.0001 1.0001 0 1 0 23 9 L 22 9 z M 2.9804688 13.990234 A 1.0001 1.0001 0 0 0 2.2929688 14.292969 L 1.2929688 15.292969 A 1.0001 1.0001 0 1 0 2.7070312 16.707031 L 3.7070312 15.707031 A 1.0001 1.0001 0 0 0 2.9804688 13.990234 z M 20.990234 13.990234 A 1.0001 1.0001 0 0 0 20.292969 15.707031 L 21.292969 16.707031 A 1.0001 1.0001 0 1 0 22.707031 15.292969 L 21.707031 14.292969 A 1.0001 1.0001 0 0 0 20.990234 13.990234 z M 10 17 L 14 17 L 14 18 C 14 19.116666 13.116666 20 12 20 C 10.883334 20 10 19.116666 10 18 L 10 17 z"/></svg>