<svg xmlns="http://www.w3.org/2000/svg"  viewBox="0 0 24 24" width="50px" height="50px"><path d="M 17 2 C 14.791 2 13 3.791 13 6 C 13 6.8713052 13.286739 7.671138 13.759766 8.328125 L 11.53125 11 L 8.8574219 11 C 8.4113258 9.277785 6.8616214 8 5 8 C 2.791 8 1 9.791 1 12 C 1 14.209 2.791 16 5 16 C 6.8616214 16 8.4113258 14.722215 8.8574219 13 L 11.53125 13 L 13.759766 15.671875 C 13.286739 16.328862 13 17.128695 13 18 C 13 20.209 14.791 22 17 22 C 19.209 22 21 20.209 21 18 C 21 15.791 19.209 14 17 14 C 16.388151 14 15.815412 14.148903 15.296875 14.394531 L 13.300781 12 L 15.296875 9.6054688 C 15.815412 9.8510969 16.388151 10 17 10 C 19.209 10 21 8.209 21 6 C 21 3.791 19.209 2 17 2 z M 17 4 C 18.103 4 19 4.897 19 6 C 19 7.103 18.103 8 17 8 C 15.897 8 15 7.103 15 6 C 15 4.897 15.897 4 17 4 z M 5 10 C 6.103 10 7 10.897 7 12 C 7 13.103 6.103 14 5 14 C 3.897 14 3 13.103 3 12 C 3 10.897 3.897 10 5 10 z M 17 16 C 18.103 16 19 16.897 19 18 C 19 19.103 18.103 20 17 20 C 15.897 20 15 19.103 15 18 C 15 16.897 15.897 16 17 16 z"/></svg>