<svg xmlns="http://www.w3.org/2000/svg"  viewBox="0 0 24 24" width="50px" height="50px"><path d="M 16.667969 1.0117188 C 16.383121 1.0277271 16.09896 1.0629396 15.818359 1.1191406 C 14.695957 1.3439447 13.626273 1.8913055 12.759766 2.7578125 C 11.226019 4.2913262 10.875915 6.4412797 11.359375 8.4140625 L 3.2304688 15.308594 A 1.0001 1.0001 0 0 0 3.1699219 15.363281 C 1.6162831 16.91692 1.6162831 19.467846 3.1699219 21.021484 C 4.7237239 22.57396 7.2723698 22.57396 8.8261719 21.021484 A 1.0001 1.0001 0 0 0 8.8828125 20.960938 L 15.869141 12.722656 C 17.761955 13.087793 19.783604 12.700766 21.242188 11.242188 C 22.975364 9.5090104 23.431111 6.961538 22.587891 4.8066406 A 1.0001 1.0001 0 0 0 20.949219 4.4648438 L 18.144531 7.2695312 L 17.083984 6.9160156 L 16.730469 5.8554688 L 19.535156 3.0507812 A 1.0001 1.0001 0 0 0 19.193359 1.4121094 C 18.385317 1.0959188 17.522512 0.9636936 16.667969 1.0117188 z M 16.216797 3.0761719 C 16.359189 3.0479079 16.500387 3.1259222 16.644531 3.1132812 L 14.880859 4.8769531 A 1.0001 1.0001 0 0 0 14.638672 5.9003906 L 15.345703 8.0214844 A 1.0001 1.0001 0 0 0 15.978516 8.6542969 L 18.099609 9.3613281 A 1.0001 1.0001 0 0 0 19.123047 9.1191406 L 20.886719 7.3554688 C 20.80766 8.2569919 20.521429 9.1348207 19.828125 9.828125 C 18.71165 10.9446 17.109833 11.257968 15.714844 10.787109 A 1.0001 1.0001 0 0 0 14.632812 11.087891 L 7.40625 19.611328 C 6.6176654 20.392155 5.3699436 20.39271 4.5839844 19.607422 C 3.7978614 18.821299 3.7984191 17.573897 4.5800781 16.785156 L 13.011719 9.6347656 A 1.0001 1.0001 0 0 0 13.292969 8.4980469 C 12.711512 7.0571832 12.998649 5.3462503 14.173828 4.171875 C 14.756321 3.589382 15.468949 3.2246178 16.216797 3.0761719 z"/></svg>