<svg xmlns="http://www.w3.org/2000/svg"  viewBox="0 0 24 24" width="50px" height="50px"><path d="M 3 2 A 1.0001 1.0001 0 0 0 2 3 L 2 18.25 C 2 19.757063 3.2429372 21 4.75 21 L 19.75 21 L 20 21 L 20.470703 21 C 21.855777 21 23 19.855777 23 18.470703 L 23 7 A 1.0001 1.0001 0 1 0 21 7 L 21 18.470703 C 21 18.773629 20.773629 19 20.470703 19 L 20 19 L 19.75 19 C 19.325063 19 19 18.674937 19 18.25 L 19 3 A 1.0001 1.0001 0 0 0 18 2 L 3 2 z M 4 4 L 17 4 L 17 18.25 C 17 18.541265 17.226713 18.735532 17.3125 19 L 4.75 19 C 4.3250628 19 4 18.674937 4 18.25 L 4 4 z M 7 7 A 1.0001 1.0001 0 1 0 7 9 L 14 9 A 1.0001 1.0001 0 1 0 14 7 L 7 7 z M 7 11 A 1.0001 1.0001 0 1 0 7 13 L 9 13 A 1.0001 1.0001 0 1 0 9 11 L 7 11 z M 12 11 A 1.0001 1.0001 0 1 0 12 13 L 14 13 A 1.0001 1.0001 0 1 0 14 11 L 12 11 z M 7 15 A 1.0001 1.0001 0 1 0 7 17 L 9 17 A 1.0001 1.0001 0 1 0 9 15 L 7 15 z M 12 15 A 1.0001 1.0001 0 1 0 12 17 L 14 17 A 1.0001 1.0001 0 1 0 14 15 L 12 15 z"/></svg>