<svg xmlns="http://www.w3.org/2000/svg"  viewBox="0 0 24 24" width="50px" height="50px"><path d="M 18 2 C 16.75 2 15.685226 2.5047556 15.001953 3.2734375 C 14.318681 4.0421194 14 5.0277779 14 6 C 14 6.713197 14.236366 7.4042288 14.597656 8.0410156 L 12.484375 11 L 9.8300781 11 C 9.6817812 10.377465 9.4439695 9.7751007 8.9980469 9.2734375 C 8.3147744 8.5047556 7.2499997 8 6 8 C 4.7500003 8 3.6852256 8.5047556 3.0019531 9.2734375 C 2.3186806 10.042119 2 11.027778 2 12 C 2 12.972222 2.3186806 13.957881 3.0019531 14.726562 C 3.6852256 15.495245 4.7500003 16 6 16 C 7.2499997 16 8.3147744 15.495244 8.9980469 14.726562 C 9.4439695 14.2249 9.6817812 13.622535 9.8300781 13 L 12.484375 13 L 14.597656 15.958984 C 14.236366 16.595771 14 17.286803 14 18 C 14 18.972222 14.318681 19.957881 15.001953 20.726562 C 15.685226 21.495244 16.75 22 18 22 C 19.25 22 20.314774 21.495244 20.998047 20.726562 C 21.681319 19.957881 22 18.972222 22 18 C 22 17.027778 21.681319 16.042119 20.998047 15.273438 C 20.314774 14.504755 19.25 14 18 14 C 17.25256 14 16.60995 14.219924 16.037109 14.529297 L 14.228516 12 L 16.037109 9.4707031 C 16.60995 9.7800761 17.25256 10 18 10 C 19.25 10 20.314774 9.4952444 20.998047 8.7265625 C 21.681319 7.9578806 22 6.9722221 22 6 C 22 5.0277779 21.681319 4.0421194 20.998047 3.2734375 C 20.314774 2.5047556 19.25 2 18 2 z M 18 4 C 18.749999 4 19.185226 4.2452444 19.501953 4.6015625 C 19.81868 4.9578806 20 5.4722221 20 6 C 20 6.5277779 19.81868 7.0421194 19.501953 7.3984375 C 19.185226 7.7547556 18.749999 8 18 8 C 17.250001 8 16.814774 7.7547556 16.498047 7.3984375 C 16.18132 7.0421194 16 6.5277779 16 6 C 16 5.4722221 16.18132 4.9578806 16.498047 4.6015625 C 16.814774 4.2452444 17.250001 4 18 4 z M 6 10 C 6.7499995 10 7.1852261 10.245244 7.5019531 10.601562 C 7.8111677 10.94943 7.979938 11.452253 7.9882812 11.966797 A 1.0001 1.0001 0 0 0 7.9882812 12.035156 C 7.9795112 12.549006 7.8107752 13.051012 7.5019531 13.398438 C 7.1852261 13.754755 6.7499995 14 6 14 C 5.2500005 14 4.8147739 13.754756 4.4980469 13.398438 C 4.1813198 13.042118 4 12.527778 4 12 C 4 11.472222 4.1813198 10.957881 4.4980469 10.601562 C 4.8147739 10.245245 5.2500005 10 6 10 z M 18 16 C 18.749999 16 19.185226 16.245244 19.501953 16.601562 C 19.81868 16.957881 20 17.472222 20 18 C 20 18.527778 19.81868 19.042119 19.501953 19.398438 C 19.185226 19.754756 18.749999 20 18 20 C 17.250001 20 16.814774 19.754756 16.498047 19.398438 C 16.18132 19.042119 16 18.527778 16 18 C 16 17.472222 16.18132 16.957881 16.498047 16.601562 C 16.814774 16.245244 17.250001 16 18 16 z"/></svg>