<svg xmlns="http://www.w3.org/2000/svg"  viewBox="0 0 24 24" width="50px" height="50px"><path d="M 7 3 C 5.3550302 3 4 4.3550302 4 6 L 4 15 A 1.0001 1.0001 0 1 0 6 15 L 6 6 C 6 5.4349698 6.4349698 5 7 5 L 17.416016 5 C 17.366623 5.1232802 17.295083 5.2342341 17.228516 5.3476562 A 1.0001 1.0001 0 0 0 17 6.1582031 L 17 19 C 17 19.56503 16.56503 20 16 20 C 15.43497 20 15 19.56503 15 19 A 1.0001 1.0001 0 0 0 14 18 L 3 18 A 1.0001 1.0001 0 0 0 2 19 C 2 20.64497 3.3550302 22 5 22 L 16 22 A 1.0001 1.0001 0 0 0 16.154297 21.984375 C 17.727466 21.901327 19 20.592226 19 19 L 19 7 L 22 7 A 1.0001 1.0001 0 0 0 23 6 C 23 4.408627 21.729971 3.1006275 20.158203 3.015625 A 1.0001 1.0001 0 0 0 20 3 L 7 3 z M 9 8 A 1.0001 1.0001 0 1 0 9 10 L 14 10 A 1.0001 1.0001 0 1 0 14 8 L 9 8 z M 9 11 A 1.0001 1.0001 0 1 0 9 13 L 14 13 A 1.0001 1.0001 0 1 0 14 11 L 9 11 z M 9 14 A 1.0001 1.0001 0 1 0 9 16 L 12 16 A 1.0001 1.0001 0 1 0 12 14 L 9 14 z"/></svg>