<svg xmlns="http://www.w3.org/2000/svg"  viewBox="0 0 24 24" width="50px" height="50px"><path d="M 12 2 C 6.4889941 2 2 6.4889982 2 12 C 2 17.511002 6.4889941 22 12 22 C 17.511006 22 22 17.511002 22 12 C 22 6.4889982 17.511006 2 12 2 z M 12 4 C 16.430126 4 20 7.5698765 20 12 C 20 16.430123 16.430126 20 12 20 C 7.5698737 20 4 16.430123 4 12 C 4 7.5698765 7.5698737 4 12 4 z M 15.980469 8.9902344 A 1.0001 1.0001 0 0 0 15.292969 9.2929688 L 11 13.585938 L 8.7070312 11.292969 A 1.0001 1.0001 0 1 0 7.2929688 12.707031 L 10.292969 15.707031 A 1.0001 1.0001 0 0 0 11.707031 15.707031 L 16.707031 10.707031 A 1.0001 1.0001 0 0 0 15.980469 8.9902344 z"/></svg>