<svg xmlns="http://www.w3.org/2000/svg"  viewBox="0 0 24 24" width="50px" height="50px"><path d="M19.642,6.55c-0.354-0.42-0.986-0.476-1.409-0.118c-0.422,0.356-0.475,0.987-0.118,1.409C19.33,9.28,20,11.112,20,13	c0,4.411-3.589,8-8,8s-8-3.589-8-8s3.589-8,8-8c0.243,0,0.484,0.026,0.725,0.048l-1.397,1.214c-0.417,0.362-0.461,0.994-0.099,1.411	c0.198,0.228,0.476,0.344,0.755,0.344c0.233,0,0.467-0.081,0.656-0.245l3.052-2.652c0.203-0.177,0.327-0.429,0.342-0.699	c0.016-0.27-0.079-0.534-0.262-0.733l-3.052-3.316c-0.374-0.407-1.009-0.431-1.413-0.059c-0.407,0.374-0.433,1.006-0.06,1.413	l1.201,1.305C12.299,3.023,12.151,3,12,3C6.486,3,2,7.486,2,13s4.486,10,10,10s10-4.486,10-10C22,10.64,21.162,8.35,19.642,6.55z"/></svg>