<svg xmlns="http://www.w3.org/2000/svg"  viewBox="0 0 24 24" width="50px" height="50px"><path d="M 7.3652344 4 C 5.7190049 4 4.255907 5.0694481 3.734375 6.6367188 A 1.0001 1.0001 0 0 0 3.7246094 6.6679688 L 1.3105469 14.800781 C 1.2601842 14.934599 1.2271637 15.071614 1.1894531 15.208984 L 1.1796875 15.242188 A 1.0001 1.0001 0 0 0 1.1445312 15.384766 C 1.0586559 15.752176 1 16.125303 1 16.5 C 1 17.597222 1.3603473 18.707881 2.1269531 19.570312 C 2.8935589 20.432744 4.0833337 21 5.5 21 C 6.9166663 21 8.1064411 20.432744 8.8730469 19.570312 C 9.5941415 18.759081 9.9439773 17.728029 9.984375 16.695312 C 11.298872 17.095063 12.705234 17.093951 14.019531 16.693359 C 14.124448 19.069721 16.099992 21 18.5 21 C 20.966058 21 23 18.966058 23 16.5 C 23 16.14663 22.947954 15.805521 22.869141 15.474609 A 1.0001 1.0001 0 0 0 22.820312 15.240234 L 20.275391 6.6660156 A 1.0001 1.0001 0 0 0 20.265625 6.6347656 C 19.743972 5.0683663 18.280995 4 16.634766 4 C 14.751296 4 13.242242 5.368565 12.878906 7.0898438 C 12.588514 7.0323227 12.294827 6.9941406 12 6.9941406 C 11.705173 6.9941406 11.411486 7.0323227 11.121094 7.0898438 C 10.757751 5.3685655 9.248704 4 7.3652344 4 z M 7.3652344 6 C 8.5285996 6 9.3656691 7.0034743 9.2050781 8.1269531 A 1.0001 1.0001 0 0 0 9.1972656 8.1972656 L 9.1484375 8.8789062 A 1.0001 1.0001 0 0 0 11.123047 9.171875 C 11.691559 8.959193 12.308323 8.9596103 12.876953 9.171875 A 1.0001 1.0001 0 0 0 14.851562 8.8789062 L 14.802734 8.1972656 A 1.0001 1.0001 0 0 0 14.794922 8.1269531 C 14.63431 7.0034734 15.4714 6 16.634766 6 C 17.42609 6 18.105116 6.4902572 18.365234 7.2617188 L 19.841797 12.228516 C 19.415008 12.092356 18.969083 12 18.5 12 C 16.864001 12 15.432488 12.903939 14.644531 14.226562 C 13.067724 15.23611 11.041169 15.248873 9.4472656 14.277344 C 9.288506 13.978497 9.1047877 13.690396 8.8730469 13.429688 C 8.1064411 12.567255 6.9166663 12 5.5 12 C 5.0297918 12 4.5868682 12.066605 4.1738281 12.181641 L 5.6328125 7.2675781 L 5.6328125 7.265625 C 5.8916889 6.4898326 6.5720156 6 7.3652344 6 z M 5.5 14 C 6.4166661 14 6.9768928 14.307744 7.3769531 14.757812 C 7.7770135 15.207882 8 15.847222 8 16.5 C 8 17.152778 7.7770135 17.792119 7.3769531 18.242188 C 6.9768928 18.692256 6.4166661 19 5.5 19 C 4.5833339 19 4.0231072 18.692256 3.6230469 18.242188 C 3.2229865 17.792119 3 17.152778 3 16.5 C 3 16.276214 3.0353737 16.057293 3.0859375 15.84375 C 3.0868874 15.839738 3.0888767 15.836037 3.0898438 15.832031 A 1.0001 1.0001 0 0 0 3.0957031 15.810547 L 3.1914062 15.490234 C 3.2961599 15.218141 3.4378098 14.966205 3.6230469 14.757812 C 4.0231072 14.307745 4.5833339 14 5.5 14 z M 18.5 14 C 19.859942 14 21 15.140058 21 16.5 C 21 17.859942 19.859942 19 18.5 19 C 17.140058 19 16 17.859942 16 16.5 C 16 15.140058 17.140058 14 18.5 14 z"/></svg>