<svg xmlns="http://www.w3.org/2000/svg"  viewBox="0 0 24 24" width="50px" height="50px"><path d="M 4 2 A 1.0001 1.0001 0 0 0 3 3 L 3 21 A 1.0001 1.0001 0 0 0 4 22 L 16.5 22 C 18.421188 22 20 20.421188 20 18.5 L 20 5.5 C 20 3.5788117 18.421188 2 16.5 2 L 4 2 z M 5 4 L 16.5 4 C 17.340812 4 18 4.6591883 18 5.5 L 18 18.5 C 18 19.340812 17.340812 20 16.5 20 L 5 20 L 5 4 z M 11.5 7 C 10.46 7 9.6171875 7.8438125 9.6171875 8.8828125 L 9.6171875 9.8222656 C 9.6171875 10.862266 10.461 11.705078 11.5 11.705078 C 12.539 11.705078 13.382812 10.861266 13.382812 9.8222656 L 13.382812 8.8828125 C 13.382812 7.8438125 12.54 7 11.5 7 z M 10.617188 13.470703 C 10.568188 13.470703 10.519703 13.474422 10.470703 13.482422 C 8.6507031 13.789422 7.3625937 15.231969 7.3085938 15.292969 C 7.1665937 15.453969 7.0878906 15.66 7.0878906 15.875 L 7.0878906 16.117188 C 7.0888906 16.605187 7.4827031 17 7.9707031 17 L 15.029297 17 C 15.516297 17 15.912109 16.604187 15.912109 16.117188 L 15.912109 15.876953 C 15.912109 15.661953 15.833406 15.453969 15.691406 15.292969 C 15.637406 15.231969 14.349297 13.789422 12.529297 13.482422 C 12.480297 13.474422 12.431813 13.470703 12.382812 13.470703 L 10.617188 13.470703 z"/></svg>