<svg xmlns="http://www.w3.org/2000/svg"  viewBox="0 0 24 24" width="50px" height="50px"><path d="M 6.5 2 C 5.1309372 2 4 3.1309372 4 4.5 L 4 19.5 C 4 20.869063 5.1309372 22 6.5 22 L 17.5 22 C 18.869063 22 20 20.869063 20 19.5 L 20 8 A 1.0001 1.0001 0 0 0 19.707031 7.2929688 L 14.707031 2.2929688 A 1.0001 1.0001 0 0 0 14 2 L 6.5 2 z M 6.5 4 L 13 4 L 13 8 A 1.0001 1.0001 0 0 0 14 9 L 18 9 L 18 19.5 C 18 19.786937 17.786937 20 17.5 20 L 6.5 20 C 6.2130628 20 6 19.786937 6 19.5 L 6 4.5 C 6 4.2130628 6.2130628 4 6.5 4 z M 15 5.4140625 L 16.585938 7 L 15 7 L 15 5.4140625 z M 9 10 A 1.0001 1.0001 0 1 0 9 12 L 15 12 A 1.0001 1.0001 0 1 0 15 10 L 9 10 z M 9 13 A 1.0001 1.0001 0 1 0 9 15 L 15 15 A 1.0001 1.0001 0 1 0 15 13 L 9 13 z M 9 16 A 1.0001 1.0001 0 1 0 9 18 L 13 18 A 1.0001 1.0001 0 1 0 13 16 L 9 16 z"/></svg>