<svg xmlns="http://www.w3.org/2000/svg"  viewBox="0 0 24 24" width="50px" height="50px"><path d="M 13.984375 1.9863281 A 1.0001 1.0001 0 0 0 13.839844 2 L 6.5 2 C 5.1309372 2 4 3.1309372 4 4.5 L 4 19.5 C 4 20.869063 5.1309372 22 6.5 22 L 17.5 22 C 18.869063 22 20 20.869063 20 19.5 L 20 8.1679688 A 1.0001 1.0001 0 0 0 19.623047 7.2070312 A 1.0001 1.0001 0 0 0 19.617188 7.203125 L 14.791016 2.3769531 A 1.0001 1.0001 0 0 0 13.984375 1.9863281 z M 6.5 4 L 13 4 L 13 8 A 1.0001 1.0001 0 0 0 14 9 L 18 9 L 18 17.121094 L 15.484375 14.605469 C 14.69585 13.816943 13.387922 13.81913 12.601562 14.609375 L 11.957031 15.255859 L 10.230469 13.529297 C 9.878785 13.177618 9.4103674 13.001953 8.9414062 13.001953 C 8.4724452 13.001953 8.0020752 13.177612 7.6503906 13.529297 L 6 15.179688 L 6 4.5 C 6 4.2130628 6.2130628 4 6.5 4 z M 15 5.4140625 L 16.585938 7 L 15 7 L 15 5.4140625 z M 14.5 10 A 1.5 1.5 0 0 0 14.5 13 A 1.5 1.5 0 0 0 14.5 10 z M 8.9414062 15.066406 L 12.232422 18.359375 A 1.0001 1.0001 0 1 0 13.646484 16.945312 L 13.371094 16.669922 L 14.019531 16.019531 C 14.041171 15.997781 14.048842 15.998061 14.070312 16.019531 L 17.876953 19.826172 C 17.786987 19.931381 17.657366 20 17.5 20 L 6.5 20 C 6.2130628 20 6 19.786937 6 19.5 L 6 18.007812 L 8.9414062 15.066406 z"/></svg>