<svg xmlns="http://www.w3.org/2000/svg" style="display: none;" width="50px" height="50px">
    <symbol id="edit" viewBox="0 0 24 24">
        <path d="M 13.515625 2 C 13.371125 1.9980602 13.287109 2.0058594 13.287109 2.0058594 A 1.0001 1.0001 0 0 0 12.542969 2.4375 L 3.4023438 15.751953 A 1.0001 1.0001 0 0 0 3.2285156 16.255859 L 3.0019531 19.939453 A 1.0001 1.0001 0 0 0 4.4160156 20.910156 L 7.7714844 19.375 A 1.0001 1.0001 0 0 0 8.1796875 19.03125 L 17.322266 5.71875 A 1.0001 1.0001 0 0 0 17.455078 4.8671875 C 17.455078 4.8671875 17.086993 3.5788439 15.855469 2.7324219 C 14.931145 2.097138 13.949125 2.0058195 13.515625 2 z M 13.818359 4.1113281 C 14.050244 4.1251801 14.290517 4.0838521 14.722656 4.3808594 C 15.154177 4.6774423 15.203847 4.9148676 15.300781 5.1269531 L 14.509766 6.2773438 L 13.029297 5.2597656 L 13.818359 4.1113281 z M 11.898438 6.9101562 L 13.378906 7.9257812 L 6.6894531 17.671875 L 5.0996094 18.396484 L 5.2070312 16.65625 L 11.898438 6.9101562 z M 11 19 A 1 1 0 0 0 11 21 A 1 1 0 0 0 11 19 z M 15 19 A 1 1 0 0 0 15 21 A 1 1 0 0 0 15 19 z M 19 19 A 1 1 0 0 0 19 21 A 1 1 0 0 0 19 19 z"/>
    </symbol>
</svg>