<svg xmlns="http://www.w3.org/2000/svg"  viewBox="0 0 24 24" width="50px" height="50px"><path d="M 13.984375 1.9863281 A 1.0001 1.0001 0 0 0 13.839844 2 L 6.5 2 C 5.1309372 2 4 3.1309372 4 4.5 L 4 19.5 C 4 20.869063 5.1309372 22 6.5 22 L 17.5 22 C 18.869063 22 20 20.869063 20 19.5 L 20 8.1679688 A 1.0001 1.0001 0 0 0 19.623047 7.2070312 A 1.0001 1.0001 0 0 0 19.617188 7.203125 L 14.791016 2.3769531 A 1.0001 1.0001 0 0 0 13.984375 1.9863281 z M 6.5 4 L 13 4 L 13 8 A 1.0001 1.0001 0 0 0 14 9 L 18 9 L 18 19.5 C 18 19.786937 17.786937 20 17.5 20 L 6.5 20 C 6.2130628 20 6 19.786937 6 19.5 L 6 4.5 C 6 4.2130628 6.2130628 4 6.5 4 z M 15 5.4140625 L 16.585938 7 L 15 7 L 15 5.4140625 z"/></svg>