<svg xmlns="http://www.w3.org/2000/svg"  viewBox="0 0 24 24" width="50px" height="50px"><path d="M 12 2 C 6.946111 2 4 5.396627 4 9 L 4 11.347656 C 3.5435634 11.740244 3 12.361329 3 13.5 C 3 15.472418 4.3306667 16.306373 4.8730469 16.603516 C 5.3413346 18.22016 6.330869 19.556864 7.5722656 20.457031 C 8.9356029 21.445621 10.519883 22 12 22 C 13.480117 22 15.064397 21.445621 16.427734 20.457031 C 17.669131 19.556864 18.658665 18.22016 19.126953 16.603516 C 19.669333 16.306373 21 15.472418 21 13.5 C 21 12.361329 20.456437 11.740244 20 11.347656 L 20 9 C 20 5.396627 17.053889 2 12 2 z M 12 4 C 16.218111 4 18 6.415373 18 9 L 18 11.78125 A 1.0001 1.0001 0 0 0 18.544922 12.671875 C 18.544922 12.671875 19 12.846792 19 13.5 C 19 14.641458 17.957031 15.037109 17.957031 15.037109 A 1.0001 1.0001 0 0 0 17.363281 15.757812 C 17.100928 17.025989 16.292569 18.08473 15.253906 18.837891 C 14.215244 19.591051 12.951883 20 12 20 C 11.048117 20 9.7847563 19.591051 8.7460938 18.837891 C 7.707431 18.08473 6.8990718 17.025989 6.6367188 15.757812 A 1.0001 1.0001 0 0 0 6.0429688 15.037109 C 6.0429688 15.037109 5 14.641458 5 13.5 C 5 12.846792 5.4550781 12.671875 5.4550781 12.671875 A 1.0001 1.0001 0 0 0 6 11.78125 L 6 9 C 6 6.415373 7.781889 4 12 4 z M 13.941406 6.0078125 A 1.0001 1.0001 0 0 0 13 7 C 13 7.9683091 12.286002 8.6543514 11.15625 9.203125 C 10.026498 9.7518986 8.5668019 10 8 10 A 1.0001 1.0001 0 1 0 8 12 C 9.0141981 12 10.554298 11.718429 12.029297 11.001953 C 12.74341 10.655075 13.452294 10.153349 14.003906 9.5195312 C 14.365788 10.008577 14.827481 10.48621 15.507812 10.871094 A 1.0005267 1.0005267 0 1 0 16.492188 9.1289062 C 14.957314 8.2605838 15 6.9765625 15 6.9765625 A 1.0001 1.0001 0 0 0 13.941406 6.0078125 z"/></svg>