<svg xmlns="http://www.w3.org/2000/svg"  viewBox="0 0 24 24" width="50px" height="50px"><path d="M 3 3 A 1.0001 1.0001 0 0 0 2 4 L 2 8 A 1.0001 1.0001 0 0 0 3 9 L 3 20 A 1.0001 1.0001 0 0 0 4 21 L 20 21 A 1.0001 1.0001 0 0 0 21 20 L 21 9 A 1.0001 1.0001 0 0 0 22 8 L 22 4 A 1.0001 1.0001 0 0 0 21 3 L 3 3 z M 4 5 L 20 5 L 20 6.9863281 A 1.0001 1.0001 0 0 0 19.841797 7 L 4.1679688 7 A 1.0001 1.0001 0 0 0 4 6.9863281 L 4 5 z M 5 9 L 19 9 L 19 19 L 5 19 L 5 9 z M 10 11 A 1.0001 1.0001 0 1 0 10 13 L 14 13 A 1.0001 1.0001 0 1 0 14 11 L 10 11 z"/></svg>