<svg xmlns="http://www.w3.org/2000/svg"  viewBox="0 0 24 24" width="50px" height="50px"><path d="M 11.130859 1 C 10.185672 1 9.3584008 1.6770236 9.1699219 2.6015625 L 8.96875 3.5957031 C 7.9576597 3.9605887 7.0388923 4.4895343 6.2324219 5.1699219 L 5.2753906 4.8496094 C 4.3783829 4.5486135 3.3832049 4.9272373 2.9101562 5.7441406 A 1.0001 1.0001 0 0 0 2.9082031 5.7460938 L 2.0390625 7.2539062 C 1.5673844 8.0723528 1.7375841 9.1257327 2.4453125 9.7519531 L 3.203125 10.421875 C 3.1075862 10.937431 3 11.449451 3 12 C 3 12.550549 3.1075862 13.062569 3.203125 13.578125 L 2.4453125 14.248047 C 1.7378643 14.874019 1.5665404 15.926105 2.0371094 16.744141 A 1.0001 1.0001 0 0 0 2.0371094 16.746094 L 2.9082031 18.253906 C 3.3810509 19.07245 4.3797986 19.448292 5.2753906 19.148438 L 6.234375 18.828125 C 7.040366 19.508238 7.9567682 20.039638 8.9667969 20.404297 L 9.1699219 21.396484 C 9.358338 22.322698 10.185672 23 11.130859 23 L 12.869141 23 C 13.814328 23 14.641599 22.322976 14.830078 21.398438 L 15.03125 20.404297 C 16.041078 20.039682 16.959756 19.510031 17.765625 18.830078 L 18.722656 19.150391 C 19.618248 19.450245 20.618949 19.072451 21.091797 18.253906 L 21.960938 16.748047 L 21.960938 16.746094 C 22.431797 15.929058 22.261346 14.875304 21.554688 14.25 L 21.552734 14.248047 L 20.796875 13.578125 C 20.89246 13.062663 21 12.550549 21 12 C 21 11.449451 20.892414 10.937431 20.796875 10.421875 L 21.554688 9.7519531 C 22.262136 9.1259807 22.43346 8.0738949 21.962891 7.2558594 A 1.0001 1.0001 0 0 0 21.962891 7.2539062 L 21.091797 5.7460938 C 20.618949 4.9275505 19.620201 4.551708 18.724609 4.8515625 L 17.765625 5.171875 C 16.959634 4.4917616 16.043232 3.9603621 15.033203 3.5957031 L 14.830078 2.6035156 L 14.830078 2.6015625 C 14.64232 1.6750184 13.813741 1 12.869141 1 L 11.130859 1 z M 11.130859 3 L 12.869141 3 A 1.0001 1.0001 0 0 0 12.871094 3 L 13.175781 4.5019531 A 1.0001 1.0001 0 0 0 13.886719 5.265625 C 15.0359 5.5870803 16.064818 6.1897218 16.892578 7 A 1.0001 1.0001 0 0 0 17.910156 7.2324219 L 19.359375 6.7480469 L 20.228516 8.2519531 L 20.228516 8.2539062 L 19.080078 9.2695312 A 1.0001 1.0001 0 0 0 18.773438 10.265625 C 18.917495 10.830299 19 11.407457 19 12 C 19 12.592543 18.91749 13.169704 18.773438 13.734375 A 1.0001 1.0001 0 0 0 19.080078 14.730469 L 20.228516 15.746094 L 19.359375 17.253906 L 17.908203 16.767578 A 1.0001 1.0001 0 0 0 16.890625 17.001953 C 16.062865 17.812231 15.033946 18.41292 13.884766 18.734375 A 1.0001 1.0001 0 0 0 13.175781 19.498047 L 12.869141 21 L 11.130859 21 L 11.128906 20.998047 L 10.824219 19.498047 A 1.0001 1.0001 0 0 0 10.113281 18.734375 C 8.9641006 18.41292 7.9351818 17.810278 7.1074219 17 A 1.0001 1.0001 0 0 0 6.0898438 16.767578 L 4.640625 17.251953 L 3.7714844 15.748047 L 3.7714844 15.746094 L 4.9199219 14.730469 A 1.0001 1.0001 0 0 0 5.2265625 13.734375 C 5.0825046 13.169704 5 12.592543 5 12 C 5 11.407457 5.0825046 10.830296 5.2265625 10.265625 A 1.0001 1.0001 0 0 0 4.9199219 9.2695312 L 3.7714844 8.2539062 L 4.640625 6.7480469 L 4.640625 6.7460938 L 6.0898438 7.2324219 A 1.0001 1.0001 0 0 0 7.1074219 6.9980469 C 7.9366867 6.1871518 8.9632441 5.5870749 10.113281 5.265625 A 1.0001 1.0001 0 0 0 10.824219 4.5019531 L 11.130859 3 z M 12 8 C 10.75 8 9.6852256 8.5047556 9.0019531 9.2734375 C 8.3186806 10.042119 8 11.027778 8 12 C 8 12.972222 8.3186806 13.957881 9.0019531 14.726562 C 9.6852256 15.495245 10.75 16 12 16 C 13.25 16 14.314774 15.495244 14.998047 14.726562 C 15.681319 13.957882 16 12.972222 16 12 C 16 11.027778 15.681319 10.042119 14.998047 9.2734375 C 14.314774 8.5047556 13.25 8 12 8 z M 12 10 C 12.749999 10 13.185226 10.245244 13.501953 10.601562 C 13.81868 10.957882 14 11.472222 14 12 C 14 12.527778 13.81868 13.042119 13.501953 13.398438 C 13.185226 13.754755 12.749999 14 12 14 C 11.250001 14 10.814774 13.754756 10.498047 13.398438 C 10.18132 13.042118 10 12.527778 10 12 C 10 11.472222 10.18132 10.957881 10.498047 10.601562 C 10.814774 10.245245 11.250001 10 12 10 z"/></svg>