<svg xmlns="http://www.w3.org/2000/svg" width="50px" height="50px" style="display: none;">
    <symbol id="delete-2" viewBox="0 0 24 24" >
        <path d="M 9.5 2 A 1.0001 1.0001 0 0 0 8.6054688 2.5527344 L 8.3828125 3 L 3.6582031 3 A 1.0001 1.0001 0 0 0 3.3261719 3 L 2 3 A 1.0001 1.0001 0 1 0 2 5 L 2.5566406 5 L 3.3320312 18.175781 C 3.4258551 19.751425 4.747814 21 6.3261719 21 L 17.673828 21 C 19.252186 21 20.574145 19.751425 20.667969 18.175781 L 21.443359 5 L 22 5 A 1.0001 1.0001 0 1 0 22 3 L 20.664062 3 A 1.0001 1.0001 0 0 0 20.335938 3 L 15.617188 3 L 15.394531 2.5527344 A 1.0001 1.0001 0 0 0 14.5 2 L 9.5 2 z M 10.117188 4 L 13.882812 4 L 14.105469 4.4472656 A 1.0001 1.0001 0 0 0 15 5 L 19.439453 5 L 18.671875 18.056641 C 18.639699 18.596997 18.21347 19 17.673828 19 L 6.3261719 19 C 5.7871763 19 5.361207 18.597971 5.328125 18.058594 L 5.328125 18.056641 L 4.5605469 5 L 9 5 A 1.0001 1.0001 0 0 0 9.8945312 4.4472656 L 10.117188 4 z M 8.0214844 6.9863281 A 1.0001 1.0001 0 0 0 7.0019531 8.0625 L 7.5019531 16.0625 A 1.0001 1.0001 0 1 0 9.4980469 15.9375 L 8.9980469 7.9375 A 1.0001 1.0001 0 0 0 8.0214844 6.9863281 z M 15.949219 6.9863281 A 1.0001 1.0001 0 0 0 15.001953 7.9375 L 14.501953 15.9375 A 1.0001 1.0001 0 1 0 16.498047 16.0625 L 16.998047 8.0625 A 1.0001 1.0001 0 0 0 15.949219 6.9863281 z"/>
    </symbol>
</svg>