<svg xmlns="http://www.w3.org/2000/svg" width="50px" height="50px" style="display: none;">
    <symbol id="plus" viewBox="0 0 24 24">
        <path d="M 12 2 C 6.4889941 2 2 6.4889982 2 12 C 2 17.511002 6.4889941 22 12 22 C 17.511006 22 22 17.511002 22 12 C 22 6.4889982 17.511006 2 12 2 z M 12 4 C 16.430126 4 20 7.5698765 20 12 C 20 16.430123 16.430126 20 12 20 C 7.5698737 20 4 16.430123 4 12 C 4 7.5698765 7.5698737 4 12 4 z M 11.984375 6.9863281 A 1.0001 1.0001 0 0 0 11 8 L 11 11 L 8 11 A 1.0001 1.0001 0 1 0 8 13 L 11 13 L 11 16 A 1.0001 1.0001 0 1 0 13 16 L 13 13 L 16 13 A 1.0001 1.0001 0 1 0 16 11 L 13 11 L 13 8 A 1.0001 1.0001 0 0 0 11.984375 6.9863281 z"/>
    </symbol>
</svg>