<svg xmlns="http://www.w3.org/2000/svg"  viewBox="0 0 24 24" width="50px" height="50px"><path d="M 8.0195312 3 C 5.259291 3 3 5.259291 3 8.0195312 L 3 15.980469 C 3 18.740709 5.259291 21 8.0195312 21 L 15.980469 21 C 18.740709 21 21 18.740709 21 15.980469 L 21 8.0195312 C 21 5.259291 18.740709 3 15.980469 3 L 8.0195312 3 z M 8.0195312 5 L 15.980469 5 C 17.660229 5 19 6.3397716 19 8.0195312 L 19 15.980469 C 19 17.660229 17.660229 19 15.980469 19 L 8.0195312 19 C 6.3397716 19 5 17.660229 5 15.980469 L 5 8.0195312 C 5 6.3397716 6.3397716 5 8.0195312 5 z M 16.96875 7.9902344 A 1.0001 1.0001 0 0 0 16.283203 8.2929688 L 11 13.585938 L 8.7070312 11.292969 A 1.0001 1.0001 0 1 0 7.2929688 12.707031 L 10.292969 15.707031 A 1.0001 1.0001 0 0 0 11.707031 15.707031 L 17.697266 9.7050781 A 1.0001 1.0001 0 0 0 16.96875 7.9902344 z"/></svg>