<svg xmlns="http://www.w3.org/2000/svg"  viewBox="0 0 24 24" width="50px" height="50px"><path d="M 4.75 4 C 3.2429372 4 2 5.2429372 2 6.75 L 2 16.847656 A 1.0001 1.0001 0 0 0 2 17.179688 L 2 17.25 C 2 18.757063 3.2429372 20 4.75 20 L 19.25 20 C 20.757063 20 22 18.757063 22 17.25 L 22 6.75 C 22 5.2429372 20.757063 4 19.25 4 L 4.75 4 z M 4.75 6 L 19.25 6 C 19.674937 6 20 6.3250628 20 6.75 L 20 16.585938 L 15.416016 12.001953 C 14.641623 11.22756 13.356168 11.229721 12.583984 12.005859 L 12.003906 12.589844 L 10.414062 11 C 10.027771 10.613708 9.5141976 10.419879 9 10.419922 C 8.4858024 10.419965 7.9719732 10.612974 7.5859375 11 L 4 14.585938 L 4 6.75 C 4 6.3250628 4.3250628 6 4.75 6 z M 16.5 8 A 1.5 1.5 0 0 0 16.5 11 A 1.5 1.5 0 0 0 16.5 8 z M 9 12.414062 L 12.292969 15.707031 A 1.0001 1.0001 0 1 0 13.707031 14.292969 L 13.417969 14.003906 L 14.001953 13.416016 L 18.585938 18 L 4.75 18 C 4.3746151 18 4.0896569 17.740775 4.0253906 17.388672 L 9 12.414062 z"/></svg>