<svg xmlns="http://www.w3.org/2000/svg"  viewBox="0 0 24 24" width="50px" height="50px"><path d="M 10 2 C 8.3550302 2 7 3.3550302 7 5 L 7 6 L 5 6 C 3.3550302 6 2 7.3550302 2 9 L 2 10 L 2 19 C 2 20.64497 3.3550302 22 5 22 L 19 22 C 20.64497 22 22 20.64497 22 19 L 22 10 L 22 9 C 22 7.3550302 20.64497 6 19 6 L 17 6 L 17 5 C 17 3.3550302 15.64497 2 14 2 L 10 2 z M 10 4 L 14 4 C 14.56503 4 15 4.4349698 15 5 L 15 6 L 9 6 L 9 5 C 9 4.4349698 9.4349698 4 10 4 z M 5 8 L 8 8 L 16 8 L 19 8 C 19.56503 8 20 8.4349698 20 9 L 20 10 C 20 11.116666 19.116666 12 18 12 L 17 12 A 1.0001 1.0001 0 1 0 17 14 L 18 14 C 18.730688 14 19.40837 13.786352 20 13.439453 L 20 19 C 20 19.56503 19.56503 20 19 20 L 5 20 C 4.4349698 20 4 19.56503 4 19 L 4 13.439453 C 4.5916303 13.786352 5.2693122 14 6 14 L 7 14 A 1.0001 1.0001 0 1 0 7 12 L 6 12 C 4.8833339 12 4 11.116666 4 10 L 4 9 C 4 8.4349698 4.4349698 8 5 8 z M 11 12 A 1.0001 1.0001 0 1 0 11 14 L 13 14 A 1.0001 1.0001 0 1 0 13 12 L 11 12 z"/></svg>