<svg xmlns="http://www.w3.org/2000/svg"  viewBox="0 0 24 24" width="50px" height="50px"><path d="M 12 2 C 9.4655778 2 6.9184021 2.8422209 5.0371094 4.8144531 C 3.1558166 6.7866853 2 9.8229391 2 14 L 2 20 A 1.0001 1.0001 0 0 0 3 21 L 9 21 A 1.0001 1.0001 0 0 0 9.1347656 20.990234 C 9.9674984 21.601822 10.934806 22 12 22 C 13.136685 22 14.204558 21.622821 15.119141 20.974609 A 1.0001 1.0001 0 0 0 15.347656 21 L 21 21 A 1.0001 1.0001 0 0 0 22 20 L 22 14 C 22 9.8229391 20.844183 6.7866853 18.962891 4.8144531 C 17.081598 2.8422209 14.534422 2 12 2 z M 12 4 C 14.101578 4 16.055918 4.6630916 17.515625 6.1933594 C 18.975332 7.7236272 20 10.187061 20 14 L 20 19 L 16.929688 19 C 17.601671 17.874899 18 16.502965 18 15 L 18 13 A 1.0001 1.0001 0 0 0 17.142578 12.009766 C 16.21486 11.87561 15.386295 10.946083 14.810547 9.8730469 C 14.234799 8.8000109 13.970703 7.7578125 13.970703 7.7578125 A 1.0001 1.0001 0 0 0 13.025391 7 A 1.0001 1.0001 0 0 0 12.007812 7.8769531 C 12.007812 7.8769531 11.873436 8.9052076 11.183594 9.9472656 C 10.493751 10.989324 9.3802107 12 7 12 A 1.0001 1.0001 0 0 0 6 13 L 6 15 C 6 16.388838 6.5112334 17.788469 7.3085938 19 L 4 19 L 4 14 C 4 10.187061 5.0246677 7.7236272 6.484375 6.1933594 C 7.9440823 4.6630916 9.8984222 4 12 4 z M 13.007812 10.716797 C 13.034482 10.768507 13.018975 10.766357 13.046875 10.818359 C 13.628204 11.901796 14.638874 12.986411 16 13.556641 L 16 15 C 16 18.04011 13.997983 20 12 20 C 11.106216 20 10.088786 19.382796 9.296875 18.378906 C 8.5049638 17.375016 8 16.033995 8 15 L 8 13.875 C 10.39663 13.575183 12.004398 12.33244 12.851562 11.052734 C 12.932213 10.93091 12.937832 10.837938 13.007812 10.716797 z"/></svg>